<svg width="208" height="210" viewBox="0 0 208 210" fill="none" xmlns="http://www.w3.org/2000/svg">
<g filter="url(#filter0_i_5_16)">
<path d="M195.582 42.44C224.467 10.5638 195.226 -16.6953 166.591 13.4486L47.0148 133.024L76.0062 162.016L195.582 42.44Z" fill="#C4C4C4"/>
<path d="M12.4487 167.576C-16.4361 199.452 12.8048 226.711 41.4401 196.567L161.016 76.9914L132.025 48L12.4487 167.576Z" fill="#C4C4C4"/>
<path d="M12.4487 42.44C-16.4361 10.5638 12.8047 -16.6953 41.44 13.4486L161.016 133.024L132.025 162.016L12.4487 42.44Z" fill="#C4C4C4"/>
<path d="M195.582 167.576C224.467 199.452 195.226 226.711 166.591 196.567L47.0148 76.9914L76.0062 48L195.582 167.576Z" fill="#C4C4C4"/>
</g>
<defs>
<filter id="filter0_i_5_16" x="0.551392" y="0.388977" width="206.928" height="213.238" filterUnits="userSpaceOnUse" color-interpolation-filters="sRGB">
<feFlood flood-opacity="0" result="BackgroundImageFix"/>
<feBlend mode="normal" in="SourceGraphic" in2="BackgroundImageFix" result="shape"/>
<feColorMatrix in="SourceAlpha" type="matrix" values="0 0 0 0 0 0 0 0 0 0 0 0 0 0 0 0 0 0 127 0" result="hardAlpha"/>
<feOffset dy="4"/>
<feGaussianBlur stdDeviation="2"/>
<feComposite in2="hardAlpha" operator="arithmetic" k2="-1" k3="1"/>
<feColorMatrix type="matrix" values="0 0 0 0 0 0 0 0 0 0 0 0 0 0 0 0 0 0 0.25 0"/>
<feBlend mode="normal" in2="shape" result="effect1_innerShadow_5_16"/>
</filter>
</defs>
</svg>
